<svg width="137" height="18" viewBox="0 0 137 18" fill="none" xmlns="http://www.w3.org/2000/svg">
<path d="M133.896 10.5645V6.09082C133.743 6.02051 133.556 5.96191 133.333 5.91504C133.11 5.86816 132.888 5.84473 132.665 5.84473C131.927 5.84473 131.37 6.08496 130.995 6.56543C130.626 7.04004 130.441 7.70508 130.441 8.56055C130.441 8.98828 130.468 9.35156 130.521 9.65039C130.579 9.94336 130.685 10.2041 130.837 10.4326C130.983 10.6553 131.174 10.8252 131.408 10.9424C131.648 11.0537 131.953 11.1094 132.322 11.1094C132.598 11.1094 132.867 11.0625 133.131 10.9688C133.4 10.875 133.655 10.7402 133.896 10.5645ZM136.972 12.542C136.972 13.4561 136.84 14.2324 136.576 14.8711C136.312 15.5098 135.952 16.0078 135.495 16.3652C135.038 16.7285 134.49 16.9893 133.852 17.1475C133.213 17.3115 132.504 17.3936 131.725 17.3936C131.068 17.3936 130.444 17.3496 129.853 17.2617C129.267 17.1797 128.757 17.083 128.323 16.9717V14.502H128.684C128.836 14.5605 129.015 14.625 129.22 14.6953C129.431 14.7656 129.642 14.8301 129.853 14.8887C130.104 14.9531 130.351 15.0059 130.591 15.0469C130.831 15.0879 131.077 15.1084 131.329 15.1084C131.851 15.1084 132.284 15.0527 132.63 14.9414C132.981 14.8359 133.245 14.6836 133.421 14.4844C133.597 14.2793 133.72 14.0361 133.79 13.7549C133.86 13.4795 133.896 13.1309 133.896 12.709V12.5244C133.55 12.8291 133.148 13.0752 132.691 13.2627C132.24 13.4443 131.774 13.5352 131.294 13.5352C130.017 13.5352 129.029 13.1191 128.332 12.2871C127.641 11.4551 127.295 10.1895 127.295 8.49023C127.295 7.7168 127.4 7.02246 127.611 6.40723C127.828 5.79199 128.127 5.26758 128.508 4.83398C128.871 4.41797 129.311 4.09863 129.826 3.87598C130.342 3.64746 130.878 3.5332 131.435 3.5332C131.938 3.5332 132.39 3.59766 132.788 3.72656C133.187 3.85547 133.55 4.02832 133.878 4.24512L133.992 3.80566H136.972V12.542Z" fill="white"/>
<path d="M123.244 13.6758H120.15V8.78027C120.15 8.38184 120.133 7.98633 120.098 7.59375C120.068 7.19531 120.01 6.90234 119.922 6.71484C119.816 6.49219 119.664 6.33398 119.465 6.24023C119.266 6.14062 118.999 6.09082 118.665 6.09082C118.413 6.09082 118.158 6.1377 117.9 6.23145C117.643 6.3252 117.367 6.47461 117.074 6.67969V13.6758H113.998V3.80566H117.074V4.89551C117.578 4.46777 118.067 4.13379 118.542 3.89355C119.022 3.65332 119.553 3.5332 120.133 3.5332C121.141 3.5332 121.911 3.85254 122.444 4.49121C122.978 5.12402 123.244 6.04395 123.244 7.25098V13.6758Z" fill="white"/>
<path d="M109.074 13.6758H105.998V3.80566H109.074V13.6758ZM109.162 2.39941H105.91V0H109.162V2.39941Z" fill="white"/>
<path d="M102.877 13.6758H99.2207L96.5488 9.37793L96.0742 10.0195V13.6758H92.998V0H96.0742V7.66406L98.9922 3.80566H102.622L99.168 8.05957L102.877 13.6758Z" fill="white"/>
<path d="M88.4727 8.74512C88.4727 10.3682 88.0273 11.6484 87.1367 12.5859C86.252 13.5176 84.998 13.9834 83.375 13.9834C81.7637 13.9834 80.5098 13.5176 79.6133 12.5859C78.7227 11.6484 78.2773 10.3682 78.2773 8.74512C78.2773 7.10449 78.7227 5.82129 79.6133 4.89551C80.5098 3.96387 81.7637 3.49805 83.375 3.49805C84.9922 3.49805 86.2461 3.9668 87.1367 4.9043C88.0273 5.83594 88.4727 7.11621 88.4727 8.74512ZM85.3174 8.7627C85.3174 8.17676 85.2676 7.69043 85.168 7.30371C85.0742 6.91113 84.9424 6.59766 84.7725 6.36328C84.5908 6.11719 84.3857 5.94727 84.1572 5.85352C83.9287 5.75391 83.668 5.7041 83.375 5.7041C83.0996 5.7041 82.8506 5.74805 82.6279 5.83594C82.4053 5.91797 82.2002 6.0791 82.0127 6.31934C81.8369 6.54785 81.6963 6.86133 81.5908 7.25977C81.4854 7.6582 81.4326 8.15918 81.4326 8.7627C81.4326 9.36621 81.4824 9.85547 81.582 10.2305C81.6816 10.5996 81.8105 10.8955 81.9688 11.1182C82.1328 11.3467 82.3379 11.5137 82.584 11.6191C82.8301 11.7246 83.1025 11.7773 83.4014 11.7773C83.6475 11.7773 83.8965 11.7246 84.1484 11.6191C84.4062 11.5137 84.6113 11.3555 84.7637 11.1445C84.9453 10.8926 85.083 10.5908 85.1768 10.2393C85.2705 9.88184 85.3174 9.38965 85.3174 8.7627Z" fill="white"/>
<path d="M75.4727 8.74512C75.4727 10.3682 75.0273 11.6484 74.1367 12.5859C73.252 13.5176 71.998 13.9834 70.375 13.9834C68.7637 13.9834 67.5098 13.5176 66.6133 12.5859C65.7227 11.6484 65.2773 10.3682 65.2773 8.74512C65.2773 7.10449 65.7227 5.82129 66.6133 4.89551C67.5098 3.96387 68.7637 3.49805 70.375 3.49805C71.9922 3.49805 73.2461 3.9668 74.1367 4.9043C75.0273 5.83594 75.4727 7.11621 75.4727 8.74512ZM72.3174 8.7627C72.3174 8.17676 72.2676 7.69043 72.168 7.30371C72.0742 6.91113 71.9424 6.59766 71.7725 6.36328C71.5908 6.11719 71.3857 5.94727 71.1572 5.85352C70.9287 5.75391 70.668 5.7041 70.375 5.7041C70.0996 5.7041 69.8506 5.74805 69.6279 5.83594C69.4053 5.91797 69.2002 6.0791 69.0127 6.31934C68.8369 6.54785 68.6963 6.86133 68.5908 7.25977C68.4854 7.6582 68.4326 8.15918 68.4326 8.7627C68.4326 9.36621 68.4824 9.85547 68.582 10.2305C68.6816 10.5996 68.8105 10.8955 68.9688 11.1182C69.1328 11.3467 69.3379 11.5137 69.584 11.6191C69.8301 11.7246 70.1025 11.7773 70.4014 11.7773C70.6475 11.7773 70.8965 11.7246 71.1484 11.6191C71.4062 11.5137 71.6113 11.3555 71.7637 11.1445C71.9453 10.8926 72.083 10.5908 72.1768 10.2393C72.2705 9.88184 72.3174 9.38965 72.3174 8.7627Z" fill="white"/>
<path d="M61.6416 9.66797C61.6416 10.3184 61.5186 10.8896 61.2725 11.3818C61.0264 11.874 60.6953 12.2812 60.2793 12.6035C59.7871 12.9902 59.2451 13.2656 58.6533 13.4297C58.0674 13.5938 57.3203 13.6758 56.4121 13.6758H51.1738V0.588867H55.7969C56.7578 0.588867 57.4844 0.626953 57.9766 0.703125C58.4746 0.773438 58.9404 0.925781 59.374 1.16016C59.8428 1.41211 60.1914 1.74902 60.4199 2.1709C60.6543 2.59277 60.7715 3.0791 60.7715 3.62988C60.7715 4.26855 60.6104 4.83691 60.2881 5.33496C59.9717 5.83301 59.5322 6.19922 58.9697 6.43359V6.50391C59.7783 6.67383 60.4258 7.02246 60.9121 7.5498C61.3984 8.07129 61.6416 8.77734 61.6416 9.66797ZM57.4316 4.28906C57.4316 4.07812 57.376 3.86133 57.2646 3.63867C57.1592 3.41602 56.9922 3.25488 56.7637 3.15527C56.5469 3.06152 56.2891 3.01172 55.9902 3.00586C55.6973 2.99414 55.2578 2.98828 54.6719 2.98828H54.4434V5.75684H54.8564C55.4189 5.75684 55.8115 5.75098 56.0342 5.73926C56.2627 5.72754 56.4971 5.66602 56.7373 5.55469C57.001 5.43164 57.1826 5.26172 57.2822 5.04492C57.3818 4.82812 57.4316 4.57617 57.4316 4.28906ZM58.2578 9.60645C58.2578 9.20215 58.1758 8.88574 58.0117 8.65723C57.8477 8.42871 57.6016 8.25586 57.2734 8.13867C57.0742 8.0625 56.7988 8.02148 56.4473 8.01562C56.1016 8.00391 55.6357 7.99805 55.0498 7.99805H54.4434V11.2764H54.6191C55.4746 11.2764 56.0664 11.2705 56.3945 11.2588C56.7227 11.2471 57.0566 11.168 57.3965 11.0215C57.6953 10.8926 57.9121 10.7051 58.0469 10.459C58.1875 10.207 58.2578 9.92285 58.2578 9.60645Z" fill="white"/>
<path d="M47.0625 9.31641C47.0625 10.7852 46.7083 11.9206 46 12.7227C45.2917 13.5195 44.349 13.918 43.1719 13.918C41.9583 13.918 41.0026 13.5065 40.3047 12.6836C39.612 11.8555 39.2656 10.7331 39.2656 9.31641C39.2656 7.85807 39.6224 6.72526 40.3359 5.91797C41.0547 5.11068 42 4.70703 43.1719 4.70703C44.349 4.70703 45.2917 5.11068 46 5.91797C46.7083 6.72005 47.0625 7.85286 47.0625 9.31641ZM45.5469 9.31641C45.5469 8.1862 45.3411 7.34766 44.9297 6.80078C44.5182 6.2487 43.9323 5.97266 43.1719 5.97266C42.4062 5.97266 41.8151 6.2487 41.3984 6.80078C40.987 7.34766 40.7812 8.1862 40.7812 9.31641C40.7812 10.4102 40.987 11.2409 41.3984 11.8086C41.8151 12.3711 42.4062 12.6523 43.1719 12.6523C43.9271 12.6523 44.5104 12.3763 44.9219 11.8242C45.3385 11.2669 45.5469 10.431 45.5469 9.31641Z" fill="white"/>
<path d="M34.5234 13.8477C33.7214 13.8477 33.0964 13.6211 32.6484 13.168C32.2005 12.7096 31.9766 11.9883 31.9766 11.0039V6.16797H30.9844V4.94922H31.9766V2.44141H33.4453V4.94922H36.1484V6.16797H33.4453V10.3164C33.4453 10.7591 33.4531 11.1003 33.4688 11.3398C33.4844 11.5794 33.5443 11.8034 33.6484 12.0117C33.737 12.194 33.8802 12.332 34.0781 12.4258C34.276 12.5143 34.5443 12.5586 34.8828 12.5586C35.1224 12.5586 35.3542 12.5247 35.5781 12.457C35.8021 12.3841 35.9635 12.3242 36.0625 12.2773H36.1484V13.5977C35.8724 13.6758 35.5911 13.7357 35.3047 13.7773C35.0234 13.8242 34.763 13.8477 34.5234 13.8477Z" fill="white"/>
<path d="M25.2422 13.8867C24.6589 13.8867 24.112 13.8086 23.6016 13.6523C23.0964 13.4961 22.6771 13.3294 22.3438 13.1523V11.5039H22.4219C22.5469 11.6029 22.6927 11.7122 22.8594 11.832C23.0312 11.9518 23.2578 12.0768 23.5391 12.207C23.7891 12.3216 24.0625 12.4232 24.3594 12.5117C24.6615 12.6003 24.974 12.6445 25.2969 12.6445C25.5312 12.6445 25.7812 12.6185 26.0469 12.5664C26.3125 12.5091 26.5104 12.4388 26.6406 12.3555C26.8229 12.2357 26.9531 12.1081 27.0312 11.9727C27.1146 11.8372 27.1562 11.6341 27.1562 11.3633C27.1562 11.0143 27.0599 10.7513 26.8672 10.5742C26.6797 10.3971 26.3438 10.2487 25.8594 10.1289C25.6719 10.082 25.4271 10.0273 25.125 9.96484C24.8229 9.90234 24.5443 9.83464 24.2891 9.76172C23.6224 9.56901 23.138 9.27214 22.8359 8.87109C22.5339 8.46484 22.3828 7.97526 22.3828 7.40234C22.3828 6.61589 22.6797 5.97526 23.2734 5.48047C23.8672 4.98568 24.6562 4.73828 25.6406 4.73828C26.125 4.73828 26.612 4.79818 27.1016 4.91797C27.5911 5.03776 28.0026 5.1888 28.3359 5.37109V6.94141H28.2578C27.8828 6.64453 27.4635 6.41016 27 6.23828C26.5417 6.06641 26.0781 5.98047 25.6094 5.98047C25.125 5.98047 24.7161 6.08203 24.3828 6.28516C24.0495 6.48828 23.8828 6.79557 23.8828 7.20703C23.8828 7.57161 23.9818 7.84505 24.1797 8.02734C24.3776 8.20443 24.6953 8.35026 25.1328 8.46484C25.3516 8.52214 25.5938 8.57943 25.8594 8.63672C26.1302 8.6888 26.4141 8.7513 26.7109 8.82422C27.3568 8.98568 27.8411 9.25391 28.1641 9.62891C28.4922 10.0039 28.6562 10.5143 28.6562 11.1602C28.6562 11.5352 28.5807 11.8919 28.4297 12.2305C28.2839 12.5638 28.0677 12.8503 27.7812 13.0898C27.4688 13.3503 27.1146 13.5482 26.7188 13.6836C26.3281 13.819 25.8359 13.8867 25.2422 13.8867Z" fill="white"/>
<path d="M15.6719 13.8789C14.2812 13.8789 13.2005 13.4883 12.4297 12.707C11.6641 11.9206 11.2812 10.806 11.2812 9.36328C11.2812 7.94141 11.6536 6.8112 12.3984 5.97266C13.1432 5.12891 14.1172 4.70703 15.3203 4.70703C15.862 4.70703 16.3411 4.78516 16.7578 4.94141C17.1745 5.09766 17.5391 5.34245 17.8516 5.67578C18.1641 6.00911 18.4036 6.41797 18.5703 6.90234C18.737 7.38151 18.8203 7.97005 18.8203 8.66797V9.46484H12.7734C12.7734 10.4805 13.0286 11.2565 13.5391 11.793C14.0495 12.3294 14.7552 12.5977 15.6562 12.5977C15.9792 12.5977 16.2943 12.5612 16.6016 12.4883C16.9141 12.4154 17.1953 12.3216 17.4453 12.207C17.7109 12.0872 17.9349 11.9727 18.1172 11.8633C18.2995 11.7487 18.4505 11.6419 18.5703 11.543H18.6562V13.1445C18.4844 13.2122 18.2708 13.2982 18.0156 13.4023C17.7604 13.5013 17.5312 13.5794 17.3281 13.6367C17.0417 13.7148 16.7812 13.7747 16.5469 13.8164C16.3177 13.8581 16.026 13.8789 15.6719 13.8789ZM17.3906 8.33984C17.3802 7.94401 17.3333 7.60286 17.25 7.31641C17.1667 7.02995 17.0469 6.78776 16.8906 6.58984C16.7188 6.37109 16.4974 6.20443 16.2266 6.08984C15.9609 5.97526 15.6302 5.91797 15.2344 5.91797C14.8438 5.91797 14.5104 5.97786 14.2344 6.09766C13.9635 6.21224 13.7161 6.38151 13.4922 6.60547C13.2734 6.83464 13.1068 7.08984 12.9922 7.37109C12.8776 7.64714 12.8047 7.97005 12.7734 8.33984H17.3906Z" fill="white"/>
<path d="M9.00781 13.6758H7L3.3125 9.05078H1.54688V13.6758H0V2.04297H3C3.66667 2.04297 4.22396 2.07943 4.67188 2.15234C5.125 2.22526 5.55469 2.39453 5.96094 2.66016C6.36719 2.92057 6.6875 3.25651 6.92188 3.66797C7.16146 4.07943 7.28125 4.58984 7.28125 5.19922C7.28125 6.05339 7.0651 6.76693 6.63281 7.33984C6.20052 7.91276 5.61198 8.33724 4.86719 8.61328L9.00781 13.6758ZM5.66406 5.31641C5.66406 4.97786 5.60417 4.67839 5.48438 4.41797C5.36458 4.15234 5.17969 3.9362 4.92969 3.76953C4.71094 3.6237 4.45573 3.52214 4.16406 3.46484C3.8724 3.40234 3.51042 3.37109 3.07812 3.37109H1.54688V7.76172H2.90625C3.34896 7.76172 3.7474 7.72266 4.10156 7.64453C4.45573 7.56641 4.75781 7.40495 5.00781 7.16016C5.23177 6.94141 5.39583 6.68099 5.5 6.37891C5.60938 6.07682 5.66406 5.72266 5.66406 5.31641Z" fill="white"/>
</svg>
